<svg width="375" height="44" viewBox="0 0 375 44" fill="none" xmlns="http://www.w3.org/2000/svg">
<rect width="375" height="44" fill="white"/>
<g clip-path="url(#clip0_7_1825)">
<path d="M37.5137 18.8896C39.6191 18.8896 41.4512 20.3867 41.4512 23.9414V23.9551C41.4512 27.2773 39.9541 29.2461 37.4727 29.2461C35.6611 29.2461 34.3076 28.1729 33.9932 26.6621L33.9795 26.5869H35.7158L35.7363 26.6553C35.9961 27.3457 36.6045 27.7969 37.4727 27.7969C39.0381 27.7969 39.7012 26.2656 39.7764 24.3789C39.7764 24.3037 39.7832 24.2285 39.7832 24.1533H39.6465C39.2842 24.9326 38.4229 25.623 37.0693 25.623C35.1758 25.623 33.8496 24.2422 33.8496 22.3691V22.3555C33.8496 20.3525 35.374 18.8896 37.5137 18.8896ZM37.5068 24.2695C38.6211 24.2695 39.4756 23.4629 39.4756 22.3486V22.335C39.4756 21.207 38.6211 20.3252 37.5273 20.3252C36.4404 20.3252 35.5723 21.1934 35.5723 22.2939V22.3076C35.5723 23.4492 36.3857 24.2695 37.5068 24.2695ZM44.5547 22.6084C43.9326 22.6084 43.4678 22.1299 43.4678 21.5283C43.4678 20.9199 43.9326 20.4482 44.5547 20.4482C45.1836 20.4482 45.6416 20.9199 45.6416 21.5283C45.6416 22.1299 45.1836 22.6084 44.5547 22.6084ZM44.5547 27.6807C43.9326 27.6807 43.4678 27.209 43.4678 26.6006C43.4678 25.9922 43.9326 25.5205 44.5547 25.5205C45.1836 25.5205 45.6416 25.9922 45.6416 26.6006C45.6416 27.209 45.1836 27.6807 44.5547 27.6807ZM52.4434 29V27.1064H47.6172V25.6641C48.8955 23.4424 50.2969 21.1729 51.6367 19.1357H54.1318V25.6504H55.458V27.1064H54.1318V29H52.4434ZM49.2578 25.6914H52.4707V20.5439H52.3682C51.3564 22.0889 50.2148 23.9141 49.2578 25.5889V25.6914ZM59.5459 29V20.8721H59.4297L56.9756 22.6084V20.9473L59.5527 19.1357H61.3096V29H59.5459Z" fill="black"/>
</g>
<g clip-path="url(#clip1_7_1825)">
<rect x="336.5" y="17.83" width="21" height="10.33" rx="2.17" stroke="black" stroke-opacity="0.4"/>
<rect x="338" y="19.33" width="18" height="7.33" rx="1.33" fill="black"/>
<path fill-rule="evenodd" clip-rule="evenodd" d="M359 24.9962C359.781 24.6694 360.33 23.8978 360.33 22.9981C360.33 22.0984 359.781 21.3268 359 21V24.9962Z" fill="black" fill-opacity="0.4"/>
</g>
<path d="M323.327 19.6073C325.542 19.6074 327.674 20.4588 329.28 21.9856C329.401 22.1035 329.594 22.102 329.713 21.9823L330.869 20.8156C330.929 20.7549 330.963 20.6726 330.962 20.5871C330.962 20.5015 330.927 20.4196 330.866 20.3596C326.651 16.3201 320.001 16.3201 315.786 20.3596C315.725 20.4196 315.691 20.5014 315.69 20.587C315.689 20.6726 315.723 20.7549 315.783 20.8156L316.94 21.9823C317.059 22.1022 317.252 22.1037 317.373 21.9856C318.979 20.4587 321.11 19.6073 323.327 19.6073ZM323.327 23.403C324.544 23.4029 325.718 23.8554 326.621 24.6726C326.743 24.7886 326.935 24.7861 327.054 24.667L328.209 23.5003C328.269 23.4391 328.303 23.3561 328.302 23.2698C328.301 23.1835 328.266 23.1012 328.204 23.0413C325.456 20.4849 321.2 20.4849 318.452 23.0413C318.39 23.1012 318.354 23.1836 318.353 23.2699C318.352 23.3562 318.386 23.4392 318.447 23.5003L319.602 24.667C319.721 24.7861 319.913 24.7886 320.035 24.6726C320.937 23.8559 322.11 23.4035 323.327 23.403ZM325.546 26.1873C325.607 26.1267 325.641 26.0433 325.64 25.9568C325.638 25.8703 325.6 25.7883 325.536 25.7303C324.261 24.6514 322.393 24.6514 321.117 25.7303C321.053 25.7883 321.015 25.8702 321.013 25.9567C321.012 26.0432 321.046 26.1266 321.107 26.1873L323.105 28.203C323.163 28.2622 323.243 28.2955 323.327 28.2955C323.41 28.2955 323.49 28.2622 323.548 28.203L325.546 26.1873Z" fill="black"/>
<path d="M294.67 24.3367H295.67C296.222 24.3367 296.67 24.7844 296.67 25.3367V27.3367C296.67 27.889 296.222 28.3367 295.67 28.3367H294.67C294.118 28.3367 293.67 27.889 293.67 27.3367V25.3367C293.67 24.7844 294.118 24.3367 294.67 24.3367ZM299.337 22.3367H300.337C300.889 22.3367 301.337 22.7844 301.337 23.3367V27.3367C301.337 27.889 300.889 28.3367 300.337 28.3367H299.337C298.784 28.3367 298.337 27.889 298.337 27.3367V23.3367C298.337 22.7844 298.784 22.3367 299.337 22.3367ZM304.003 20.0034H305.003C305.556 20.0034 306.003 20.4511 306.003 21.0034V27.3367C306.003 27.889 305.556 28.3367 305.003 28.3367H304.003C303.451 28.3367 303.003 27.889 303.003 27.3367V21.0034C303.003 20.4511 303.451 20.0034 304.003 20.0034ZM308.67 17.67H309.67C310.222 17.67 310.67 18.1178 310.67 18.67V27.3367C310.67 27.889 310.222 28.3367 309.67 28.3367H308.67C308.118 28.3367 307.67 27.889 307.67 27.3367V18.67C307.67 18.1178 308.118 17.67 308.67 17.67Z" fill="black"/>
<defs>
<clipPath id="clip0_7_1825">
<rect width="54" height="28" fill="white" transform="translate(21 9)"/>
</clipPath>
<clipPath id="clip1_7_1825">
<rect width="25" height="12" fill="white" transform="translate(336 17)"/>
</clipPath>
</defs>
</svg>
