<svg width="25" height="24" viewBox="0 0 25 24" fill="none" xmlns="http://www.w3.org/2000/svg">
<g id="Icons">
<mask id="mask0_165_719" style="mask-type:alpha" maskUnits="userSpaceOnUse" x="0" y="0" width="25" height="24">
<rect id="Bounding box" x="0.5" width="24" height="24" fill="#D9D9D9"/>
</mask>
<g mask="url(#mask0_165_719)">
<path id="photo_camera" d="M13 17.5C14.25 17.5 15.3125 17.0625 16.1875 16.1875C17.0625 15.3125 17.5 14.25 17.5 13C17.5 11.75 17.0625 10.6875 16.1875 9.8125C15.3125 8.9375 14.25 8.5 13 8.5C11.75 8.5 10.6875 8.9375 9.8125 9.8125C8.9375 10.6875 8.5 11.75 8.5 13C8.5 14.25 8.9375 15.3125 9.8125 16.1875C10.6875 17.0625 11.75 17.5 13 17.5ZM13 15.5C12.3 15.5 11.7083 15.2583 11.225 14.775C10.7417 14.2917 10.5 13.7 10.5 13C10.5 12.3 10.7417 11.7083 11.225 11.225C11.7083 10.7417 12.3 10.5 13 10.5C13.7 10.5 14.2917 10.7417 14.775 11.225C15.2583 11.7083 15.5 12.3 15.5 13C15.5 13.7 15.2583 14.2917 14.775 14.775C14.2917 15.2583 13.7 15.5 13 15.5ZM5 21C4.45 21 3.97917 20.8042 3.5875 20.4125C3.19583 20.0208 3 19.55 3 19V7C3 6.45 3.19583 5.97917 3.5875 5.5875C3.97917 5.19583 4.45 5 5 5H8.15L10 3H16L17.85 5H21C21.55 5 22.0208 5.19583 22.4125 5.5875C22.8042 5.97917 23 6.45 23 7V19C23 19.55 22.8042 20.0208 22.4125 20.4125C22.0208 20.8042 21.55 21 21 21H5ZM5 19H21V7H16.95L15.125 5H10.875L9.05 7H5V19Z" fill="#6B7684"/>
</g>
</g>
</svg>
