<svg width="24" height="24" viewBox="0 0 24 24" fill="none" xmlns="http://www.w3.org/2000/svg">
<g id="Icons">
<mask id="mask0_7_2432" style="mask-type:alpha" maskUnits="userSpaceOnUse" x="0" y="0" width="24" height="24">
<rect id="Bounding box" width="24" height="24" fill="#D9D9D9"/>
</mask>
<g mask="url(#mask0_7_2432)">
<path id="gif_box" d="M8.5 14H9.5C9.78333 14 10.0208 13.9042 10.2125 13.7125C10.4042 13.5208 10.5 13.2833 10.5 13V12H9.5V13H8.5V11H10.5C10.5 10.7167 10.4042 10.4792 10.2125 10.2875C10.0208 10.0958 9.78333 10 9.5 10H8.5C8.21667 10 7.97917 10.0958 7.7875 10.2875C7.59583 10.4792 7.5 10.7167 7.5 11V13C7.5 13.2833 7.59583 13.5208 7.7875 13.7125C7.97917 13.9042 8.21667 14 8.5 14ZM11.5 14H12.5V10H11.5V14ZM13.5 14H14.5V12.5H16V11.5H14.5V11H16.5V10H13.5V14ZM5 21C4.45 21 3.97917 20.8042 3.5875 20.4125C3.19583 20.0208 3 19.55 3 19V5C3 4.45 3.19583 3.97917 3.5875 3.5875C3.97917 3.19583 4.45 3 5 3H19C19.55 3 20.0208 3.19583 20.4125 3.5875C20.8042 3.97917 21 4.45 21 5V19C21 19.55 20.8042 20.0208 20.4125 20.4125C20.0208 20.8042 19.55 21 19 21H5ZM5 19H19V5H5V19Z" fill="#191F28"/>
</g>
</g>
</svg>
