<svg width="100" height="28" viewBox="0 0 100 28" fill="none" xmlns="http://www.w3.org/2000/svg">
<g clip-path="url(#clip0_193_1465)">
<rect x="61.5" y="8.82996" width="21" height="10.33" rx="2.17" stroke="black" stroke-opacity="0.4"/>
<rect x="63" y="10.33" width="18" height="7.33" rx="1.33" fill="black"/>
<path fill-rule="evenodd" clip-rule="evenodd" d="M84 15.9962C84.7812 15.6694 85.33 14.8978 85.33 13.9981C85.33 13.0984 84.7812 12.3268 84 12V15.9962Z" fill="black" fill-opacity="0.4"/>
</g>
<path d="M48.3266 10.6073C50.5425 10.6074 52.6737 11.4588 54.2796 12.9856C54.4005 13.1035 54.5938 13.102 54.7129 12.9823L55.869 11.8156C55.9293 11.7549 55.9629 11.6726 55.9624 11.5871C55.9619 11.5015 55.9273 11.4196 55.8663 11.3596C51.6512 7.32007 45.0014 7.32007 40.7863 11.3596C40.7252 11.4196 40.6906 11.5014 40.69 11.587C40.6894 11.6726 40.723 11.7549 40.7833 11.8156L41.9396 12.9823C42.0586 13.1022 42.2521 13.1037 42.373 12.9856C43.9791 11.4587 46.1105 10.6073 48.3266 10.6073ZM48.3266 14.403C49.5441 14.4029 50.7181 14.8554 51.6206 15.6726C51.7427 15.7886 51.935 15.7861 52.054 15.667L53.2086 14.5003C53.2694 14.4391 53.3032 14.3561 53.3023 14.2698C53.3014 14.1835 53.266 14.1012 53.2039 14.0413C50.4557 11.4849 46.1998 11.4849 43.4516 14.0413C43.3895 14.1012 43.3541 14.1836 43.3533 14.2699C43.3525 14.3562 43.3863 14.4392 43.4473 14.5003L44.6016 15.667C44.7206 15.7861 44.9129 15.7886 45.0349 15.6726C45.9368 14.8559 47.1099 14.4035 48.3266 14.403ZM50.5456 17.1873C50.6074 17.1267 50.6414 17.0433 50.6396 16.9568C50.6378 16.8703 50.6005 16.7883 50.5363 16.7303C49.2607 15.6514 47.3925 15.6514 46.1169 16.7303C46.0527 16.7883 46.0153 16.8702 46.0135 16.9567C46.0116 17.0432 46.0456 17.1266 46.1073 17.1873L48.1049 19.203C48.1635 19.2622 48.2433 19.2955 48.3266 19.2955C48.4099 19.2955 48.4897 19.2622 48.5483 19.203L50.5456 17.1873Z" fill="black"/>
<path d="M19.67 15.3367H20.67C21.2223 15.3367 21.67 15.7844 21.67 16.3367V18.3367C21.67 18.889 21.2223 19.3367 20.67 19.3367H19.67C19.1177 19.3367 18.67 18.889 18.67 18.3367V16.3367C18.67 15.7844 19.1177 15.3367 19.67 15.3367ZM24.3367 13.3367H25.3367C25.889 13.3367 26.3367 13.7844 26.3367 14.3367V18.3367C26.3367 18.889 25.889 19.3367 25.3367 19.3367H24.3367C23.7844 19.3367 23.3367 18.889 23.3367 18.3367V14.3367C23.3367 13.7844 23.7844 13.3367 24.3367 13.3367ZM29.0034 11.0034H30.0034C30.5557 11.0034 31.0034 11.4511 31.0034 12.0034V18.3367C31.0034 18.889 30.5557 19.3367 30.0034 19.3367H29.0034C28.4511 19.3367 28.0034 18.889 28.0034 18.3367V12.0034C28.0034 11.4511 28.4511 11.0034 29.0034 11.0034ZM33.67 8.67004H34.67C35.2223 8.67004 35.67 9.11776 35.67 9.67004V18.3367C35.67 18.889 35.2223 19.3367 34.67 19.3367H33.67C33.1177 19.3367 32.67 18.889 32.67 18.3367V9.67004C32.67 9.11776 33.1177 8.67004 33.67 8.67004Z" fill="black"/>
<defs>
<clipPath id="clip0_193_1465">
<rect width="25" height="12" fill="white" transform="translate(61 8)"/>
</clipPath>
</defs>
</svg>
