<svg width="32" height="32" viewBox="0 0 32 32" fill="none" xmlns="http://www.w3.org/2000/svg">
<mask id="mask0_67_2739" style="mask-type:alpha" maskUnits="userSpaceOnUse" x="0" y="0" width="32" height="32">
<rect width="32" height="32" fill="#D9D9D9"/>
</mask>
<g mask="url(#mask0_67_2739)">
<path d="M2.66667 29.3334V5.33335C2.66667 4.60002 2.92778 3.97224 3.45001 3.45002C3.97223 2.9278 4.6 2.66669 5.33334 2.66669H26.6667C27.4 2.66669 28.0278 2.9278 28.55 3.45002C29.0722 3.97224 29.3333 4.60002 29.3333 5.33335V21.3334C29.3333 22.0667 29.0722 22.6945 28.55 23.2167C28.0278 23.7389 27.4 24 26.6667 24H8L2.66667 29.3334ZM6.86667 21.3334H26.6667V5.33335H5.33334V22.8334L6.86667 21.3334Z" fill="#191F28"/>
</g>
</svg>
