<svg width="32" height="32" viewBox="0 0 32 32" fill="none" xmlns="http://www.w3.org/2000/svg">
<mask id="mask0_67_2742" style="mask-type:alpha" maskUnits="userSpaceOnUse" x="0" y="0" width="32" height="32">
<rect width="32" height="32" fill="#D9D9D9"/>
</mask>
<g mask="url(#mask0_67_2742)">
<path d="M2.41667 29.3334V29.9369L2.84345 29.5101L8.10356 24.25H26.6667C27.4668 24.25 28.158 23.9622 28.7268 23.3935C29.2955 22.8247 29.5833 22.1335 29.5833 21.3334V5.33335C29.5833 4.53319 29.2955 3.84198 28.7268 3.27324C28.158 2.70451 27.4668 2.41669 26.6667 2.41669H5.33334C4.53317 2.41669 3.84196 2.70451 3.27323 3.27324C2.7045 3.84198 2.41667 4.53319 2.41667 5.33335V29.3334ZM6.86667 21.0834H6.76472L6.69185 21.1546L5.58334 22.2391V5.58335H26.4167V21.0834H6.86667Z" fill="#191F28" stroke="#191F28" stroke-width="0.5"/>
</g>
</svg>
