<svg width="32" height="32" viewBox="0 0 32 32" fill="none" xmlns="http://www.w3.org/2000/svg">
<mask id="mask0_67_2760" style="mask-type:alpha" maskUnits="userSpaceOnUse" x="0" y="0" width="32" height="32">
<rect width="32" height="32" fill="#D9D9D9"/>
</mask>
<g mask="url(#mask0_67_2760)">
<path d="M8.00001 18.6666C7.26668 18.6666 6.6389 18.4055 6.11668 17.8833C5.59445 17.3611 5.33334 16.7333 5.33334 16C5.33334 15.2666 5.59445 14.6389 6.11668 14.1166C6.6389 13.5944 7.26668 13.3333 8.00001 13.3333C8.73334 13.3333 9.36112 13.5944 9.88334 14.1166C10.4056 14.6389 10.6667 15.2666 10.6667 16C10.6667 16.7333 10.4056 17.3611 9.88334 17.8833C9.36112 18.4055 8.73334 18.6666 8.00001 18.6666ZM16 18.6666C15.2667 18.6666 14.6389 18.4055 14.1167 17.8833C13.5945 17.3611 13.3333 16.7333 13.3333 16C13.3333 15.2666 13.5945 14.6389 14.1167 14.1166C14.6389 13.5944 15.2667 13.3333 16 13.3333C16.7333 13.3333 17.3611 13.5944 17.8833 14.1166C18.4056 14.6389 18.6667 15.2666 18.6667 16C18.6667 16.7333 18.4056 17.3611 17.8833 17.8833C17.3611 18.4055 16.7333 18.6666 16 18.6666ZM24 18.6666C23.2667 18.6666 22.6389 18.4055 22.1167 17.8833C21.5945 17.3611 21.3333 16.7333 21.3333 16C21.3333 15.2666 21.5945 14.6389 22.1167 14.1166C22.6389 13.5944 23.2667 13.3333 24 13.3333C24.7333 13.3333 25.3611 13.5944 25.8833 14.1166C26.4056 14.6389 26.6667 15.2666 26.6667 16C26.6667 16.7333 26.4056 17.3611 25.8833 17.8833C25.3611 18.4055 24.7333 18.6666 24 18.6666Z" fill="#191F28"/>
</g>
</svg>
