<svg class="svg-icon" style="width: 1.2em; height: 1.2em;vertical-align: middle;fill: currentColor;overflow: hidden;" viewBox="0 0 1024 1024" version="1.1" xmlns="http://www.w3.org/2000/svg"><path d="M579.075773 850.358738a400.727663 400.727663 0 0 0 51.005735-236.84402l201.36177-201.583534 150.577799-9.314091a44.352813 44.352813 0 0 0 28.607564-75.621546L697.054255 13.421161A44.352813 44.352813 0 0 0 620.989181 41.806961l-9.535855 150.799564-201.36177 201.36177a396.957674 396.957674 0 0 0-236.84402 51.005734 44.352813 44.352813 0 0 0-22.176406 32.599318 44.352813 44.352813 0 0 0 12.640552 37.478127l134.389022 134.389022L5.815668 984.304233a24.172283 24.172283 0 0 0 33.929902 33.929901l334.641972-292.5068 134.389023 134.389023a44.352813 44.352813 0 0 0 37.478127 12.640551 44.352813 44.352813 0 0 0 32.821081-22.39817zM271.710781 497.532112a298.716194 298.716194 0 0 1 147.91663-13.084079 44.352813 44.352813 0 0 0 38.143419-12.418788L687.5184 244.277552a44.352813 44.352813 0 0 0 13.08408-28.607565l4.213517-69.190388 174.750083 174.528319-69.190388 4.435281a44.352813 44.352813 0 0 0-28.607565 12.862316L552.020557 566.057208a44.352813 44.352813 0 0 0-12.418787 38.143419 298.49443 298.49443 0 0 1-13.305844 147.916631z" fill="#6B7684" /></svg>