<svg width="25" height="25" viewBox="0 0 25 25" fill="none" xmlns="http://www.w3.org/2000/svg">
<mask id="mask0_67_2136" style="mask-type:alpha" maskUnits="userSpaceOnUse" x="0" y="0" width="25" height="25">
<rect x="0.75" y="0.582031" width="24" height="24" fill="#1c1b1f"/>
</mask>
<g mask="url(#mask0_67_2136)">
<path d="M5.75 18.432C6.65 17.5487 7.69583 16.8529 8.8875 16.3445C10.0792 15.8362 11.3667 15.582 12.75 15.582C14.1333 15.582 15.4208 15.8362 16.6125 16.3445C17.8042 16.8529 18.85 17.5487 19.75 18.432V5.58203H5.75V18.432ZM12.75 13.582C13.7167 13.582 14.5417 13.2404 15.225 12.557C15.9083 11.8737 16.25 11.0487 16.25 10.082C16.25 9.11536 15.9083 8.29036 15.225 7.60703C14.5417 6.9237 13.7167 6.58203 12.75 6.58203C11.7833 6.58203 10.9583 6.9237 10.275 7.60703C9.59167 8.29036 9.25 9.11536 9.25 10.082C9.25 11.0487 9.59167 11.8737 10.275 12.557C10.9583 13.2404 11.7833 13.582 12.75 13.582ZM5.75 21.582C5.2 21.582 4.72917 21.3862 4.3375 20.9945C3.94583 20.6029 3.75 20.132 3.75 19.582V5.58203C3.75 5.03203 3.94583 4.5612 4.3375 4.16953C4.72917 3.77786 5.2 3.58203 5.75 3.58203H19.75C20.3 3.58203 20.7708 3.77786 21.1625 4.16953C21.5542 4.5612 21.75 5.03203 21.75 5.58203V19.582C21.75 20.132 21.5542 20.6029 21.1625 20.9945C20.7708 21.3862 20.3 21.582 19.75 21.582H5.75ZM7.475 19.582H18.025C17.2917 18.932 16.4625 18.4362 15.5375 18.0945C14.6125 17.7529 13.6833 17.582 12.75 17.582C11.8167 17.582 10.8792 17.7529 9.9375 18.0945C8.99583 18.4362 8.175 18.932 7.475 19.582ZM12.75 11.582C12.3333 11.582 11.9792 11.4362 11.6875 11.1445C11.3958 10.8529 11.25 10.4987 11.25 10.082C11.25 9.66536 11.3958 9.3112 11.6875 9.01953C11.9792 8.72786 12.3333 8.58203 12.75 8.58203C13.1667 8.58203 13.5208 8.72786 13.8125 9.01953C14.1042 9.3112 14.25 9.66536 14.25 10.082C14.25 10.4987 14.1042 10.8529 13.8125 11.1445C13.5208 11.4362 13.1667 11.582 12.75 11.582Z" fill="#1c1b1f"/>
</g>
</svg>
